<svg width="24" height="24" viewBox="0 0 24 24" fill="none" xmlns="http://www.w3.org/2000/svg">
<rect width="24" height="24" fill="#0072BC"/>
<path d="M16.3756 10.6878C16.3756 11.9429 15.9681 13.1023 15.2818 14.043L18.7436 17.5076C19.0855 17.8495 19.0855 18.4046 18.7436 18.7464C18.4018 19.0882 17.8467 19.0882 17.5049 18.7464L14.043 15.2818C13.1023 15.9708 11.9429 16.3756 10.6878 16.3756C7.54583 16.3756 5 13.8297 5 10.6878C5 7.54583 7.54583 5 10.6878 5C13.8297 5 16.3756 7.54583 16.3756 10.6878ZM10.6878 14.6255C11.2049 14.6255 11.7169 14.5236 12.1947 14.3257C12.6724 14.1278 13.1065 13.8378 13.4721 13.4721C13.8378 13.1065 14.1278 12.6724 14.3257 12.1947C14.5236 11.7169 14.6255 11.2049 14.6255 10.6878C14.6255 10.1707 14.5236 9.65863 14.3257 9.18089C14.1278 8.70314 13.8378 8.26906 13.4721 7.90341C13.1065 7.53776 12.6724 7.24771 12.1947 7.04982C11.7169 6.85194 11.2049 6.75009 10.6878 6.75009C10.1707 6.75009 9.65863 6.85194 9.18089 7.04982C8.70315 7.24771 8.26906 7.53776 7.90341 7.90341C7.53776 8.26906 7.24771 8.70314 7.04982 9.18089C6.85194 9.65863 6.75009 10.1707 6.75009 10.6878C6.75009 11.2049 6.85194 11.7169 7.04982 12.1947C7.24771 12.6724 7.53776 13.1065 7.90341 13.4721C8.26906 13.8378 8.70315 14.1278 9.18089 14.3257C9.65863 14.5236 10.1707 14.6255 10.6878 14.6255Z" fill="white"/>
</svg>
