<svg width="177" height="50" viewBox="0 0 177 50" fill="none" xmlns="http://www.w3.org/2000/svg">
<path d="M159.099 20.5L176.099 1C175.699 14.6 171.599 25.3333 169.599 29L159.099 20.5Z" fill="#1AB26B"/>
<path d="M157.099 44.5C149.499 49.3 141.599 46.5 138.599 44.5L148.599 32.5C152.58 27.5234 154.431 24.5804 159.099 20.5L169.599 29C165.599 37.4 159.599 42.8333 157.099 44.5Z" fill="#0072BC"/>
<path d="M175.825 1.31685L176.099 1C158.499 3 145.099 14.1667 140.599 19.5L151.599 29C161.157 18.2422 166.48 12.0999 175.825 1.31685Z" fill="#FFC20E"/>
<path d="M140.599 19.5L151.599 29L138.599 44.5C129.399 36.1 136.099 24.3333 140.599 19.5Z" fill="#ED1C24"/>
<path d="M6.0245 40.4545V47H4.96982L1.88565 42.5415H1.83132V47H0.645597V40.4545H1.70668L4.78764 44.9162H4.84517V40.4545H6.0245ZM8.15705 47H6.89142L9.19576 40.4545H10.6595L12.9671 47H11.7014L9.95321 41.7969H9.90208L8.15705 47ZM8.1986 44.4336H11.6503V45.386H8.1986V44.4336ZM12.7505 41.4485V40.4545H17.9728V41.4485H15.9498V47H14.7736V41.4485H12.7505ZM20.1653 40.4545V47H18.9796V40.4545H20.1653ZM27.298 43.7273C27.298 44.4325 27.1659 45.0366 26.9017 45.5394C26.6396 46.0401 26.2817 46.4237 25.8279 46.69C25.3762 46.9563 24.8637 47.0895 24.2906 47.0895C23.7174 47.0895 23.2039 46.9563 22.7501 46.69C22.2984 46.4215 21.9404 46.0369 21.6762 45.5362C21.4142 45.0334 21.2831 44.4304 21.2831 43.7273C21.2831 43.022 21.4142 42.419 21.6762 41.9183C21.9404 41.4155 22.2984 41.0309 22.7501 40.7646C23.2039 40.4982 23.7174 40.3651 24.2906 40.3651C24.8637 40.3651 25.3762 40.4982 25.8279 40.7646C26.2817 41.0309 26.6396 41.4155 26.9017 41.9183C27.1659 42.419 27.298 43.022 27.298 43.7273ZM26.1059 43.7273C26.1059 43.2308 26.0281 42.8121 25.8726 42.4712C25.7192 42.1282 25.5061 41.8693 25.2334 41.6946C24.9607 41.5178 24.6464 41.4293 24.2906 41.4293C23.9347 41.4293 23.6205 41.5178 23.3477 41.6946C23.075 41.8693 22.8609 42.1282 22.7053 42.4712C22.5519 42.8121 22.4752 43.2308 22.4752 43.7273C22.4752 44.2237 22.5519 44.6435 22.7053 44.9865C22.8609 45.3274 23.075 45.5863 23.3477 45.7631C23.6205 45.9379 23.9347 46.0252 24.2906 46.0252C24.6464 46.0252 24.9607 45.9379 25.2334 45.7631C25.5061 45.5863 25.7192 45.3274 25.8726 44.9865C26.0281 44.6435 26.1059 44.2237 26.1059 43.7273ZM33.7979 40.4545V47H32.7433L29.6591 42.5415H29.6048V47H28.419V40.4545H29.4801L32.5611 44.9162H32.6186V40.4545H33.7979ZM35.9305 47H34.6649L36.9692 40.4545H38.433L40.7405 47H39.4749L37.7267 41.7969H37.6755L35.9305 47ZM35.972 44.4336H39.4237V45.386H35.972V44.4336ZM41.6026 47V40.4545H42.7884V46.006H45.6712V47H41.6026ZM54.5353 42.663H53.34C53.3059 42.467 53.2431 42.2933 53.1515 42.142C53.0598 41.9886 52.9458 41.8587 52.8095 41.7521C52.6731 41.6456 52.5176 41.5657 52.3429 41.5124C52.1703 41.457 51.9838 41.4293 51.7836 41.4293C51.4277 41.4293 51.1124 41.5188 50.8375 41.6978C50.5627 41.8746 50.3475 42.1346 50.1919 42.4776C50.0364 42.8185 49.9586 43.2351 49.9586 43.7273C49.9586 44.228 50.0364 44.6499 50.1919 44.9929C50.3496 45.3338 50.5648 45.5916 50.8375 45.7663C51.1124 45.9389 51.4267 46.0252 51.7804 46.0252C51.9764 46.0252 52.1596 45.9996 52.3301 45.9485C52.5027 45.8952 52.6571 45.8175 52.7935 45.7152C52.932 45.6129 53.0481 45.4872 53.1419 45.3381C53.2377 45.1889 53.3038 45.0185 53.34 44.8267L54.5353 44.8331C54.4906 45.1442 54.3936 45.4361 54.2445 45.7088C54.0975 45.9815 53.9047 46.2223 53.666 46.4311C53.4274 46.6378 53.1483 46.7997 52.8287 46.9169C52.5091 47.032 52.1543 47.0895 51.7644 47.0895C51.1891 47.0895 50.6756 46.9563 50.2239 46.69C49.7722 46.4237 49.4164 46.0391 49.1564 45.5362C48.8965 45.0334 48.7665 44.4304 48.7665 43.7273C48.7665 43.022 48.8975 42.419 49.1596 41.9183C49.4217 41.4155 49.7786 41.0309 50.2303 40.7646C50.682 40.4982 51.1934 40.3651 51.7644 40.3651C52.1287 40.3651 52.4675 40.4162 52.7807 40.5185C53.0939 40.6207 53.373 40.771 53.6181 40.9691C53.8631 41.1651 54.0645 41.4059 54.2221 41.6914C54.3819 41.9748 54.4863 42.2987 54.5353 42.663ZM56.3826 47H55.117L57.4213 40.4545H58.8851L61.1926 47H59.927L58.1788 41.7969H58.1277L56.3826 47ZM56.4242 44.4336H59.8759V45.386H56.4242V44.4336ZM67.4337 40.4545V47H66.379L63.2948 42.5415H63.2405V47H62.0548V40.4545H63.1159L66.1968 44.9162H66.2544V40.4545H67.4337ZM74.3283 42.663H73.133C73.0989 42.467 73.036 42.2933 72.9444 42.142C72.8528 41.9886 72.7388 41.8587 72.6025 41.7521C72.4661 41.6456 72.3105 41.5657 72.1358 41.5124C71.9632 41.457 71.7768 41.4293 71.5765 41.4293C71.2207 41.4293 70.9054 41.5188 70.6305 41.6978C70.3556 41.8746 70.1404 42.1346 69.9849 42.4776C69.8294 42.8185 69.7516 43.2351 69.7516 43.7273C69.7516 44.228 69.8294 44.6499 69.9849 44.9929C70.1426 45.3338 70.3578 45.5916 70.6305 45.7663C70.9054 45.9389 71.2196 46.0252 71.5733 46.0252C71.7694 46.0252 71.9526 45.9996 72.123 45.9485C72.2956 45.8952 72.4501 45.8175 72.5865 45.7152C72.725 45.6129 72.8411 45.4872 72.9348 45.3381C73.0307 45.1889 73.0968 45.0185 73.133 44.8267L74.3283 44.8331C74.2836 45.1442 74.1866 45.4361 74.0375 45.7088C73.8904 45.9815 73.6976 46.2223 73.459 46.4311C73.2203 46.6378 72.9412 46.7997 72.6216 46.9169C72.302 47.032 71.9473 47.0895 71.5574 47.0895C70.9821 47.0895 70.4686 46.9563 70.0169 46.69C69.5652 46.4237 69.2093 46.0391 68.9494 45.5362C68.6895 45.0334 68.5595 44.4304 68.5595 43.7273C68.5595 43.022 68.6905 42.419 68.9526 41.9183C69.2147 41.4155 69.5716 41.0309 70.0233 40.7646C70.475 40.4982 70.9863 40.3651 71.5574 40.3651C71.9217 40.3651 72.2605 40.4162 72.5737 40.5185C72.8869 40.6207 73.166 40.771 73.411 40.9691C73.6561 41.1651 73.8574 41.4059 74.0151 41.6914C74.1749 41.9748 74.2793 42.2987 74.3283 42.663ZM75.4142 47V40.4545H79.6713V41.4485H76.5999V43.2255H79.4507V44.2195H76.5999V46.006H79.6968V47H75.4142ZM80.8809 47V40.4545H83.3355C83.8383 40.4545 84.2602 40.5419 84.6011 40.7166C84.9442 40.8913 85.203 41.1364 85.3778 41.4517C85.5546 41.7649 85.643 42.1303 85.643 42.5479C85.643 42.9677 85.5535 43.332 85.3746 43.641C85.1977 43.9478 84.9367 44.1854 84.5915 44.3537C84.2464 44.5199 83.8224 44.603 83.3195 44.603H81.5713V43.6186H83.1597C83.4537 43.6186 83.6945 43.5781 83.882 43.4972C84.0695 43.4141 84.208 43.2937 84.2975 43.136C84.3891 42.9762 84.4349 42.7802 84.4349 42.5479C84.4349 42.3157 84.3891 42.1175 84.2975 41.9535C84.2059 41.7873 84.0663 41.6616 83.8788 41.5763C83.6913 41.489 83.4495 41.4453 83.1533 41.4453H82.0667V47H80.8809ZM84.2623 44.0341L85.8827 47H84.5596L82.968 44.0341H84.2623ZM94.5695 42.663H93.3742C93.3401 42.467 93.2773 42.2933 93.1856 42.142C93.094 41.9886 92.98 41.8587 92.8437 41.7521C92.7073 41.6456 92.5518 41.5657 92.377 41.5124C92.2045 41.457 92.018 41.4293 91.8177 41.4293C91.4619 41.4293 91.1466 41.5188 90.8717 41.6978C90.5969 41.8746 90.3817 42.1346 90.2261 42.4776C90.0706 42.8185 89.9928 43.2351 89.9928 43.7273C89.9928 44.228 90.0706 44.6499 90.2261 44.9929C90.3838 45.3338 90.599 45.5916 90.8717 45.7663C91.1466 45.9389 91.4608 46.0252 91.8145 46.0252C92.0106 46.0252 92.1938 45.9996 92.3643 45.9485C92.5368 45.8952 92.6913 45.8175 92.8277 45.7152C92.9662 45.6129 93.0823 45.4872 93.176 45.3381C93.2719 45.1889 93.338 45.0185 93.3742 44.8267L94.5695 44.8331C94.5248 45.1442 94.4278 45.4361 94.2787 45.7088C94.1317 45.9815 93.9388 46.2223 93.7002 46.4311C93.4616 46.6378 93.1824 46.7997 92.8628 46.9169C92.5432 47.032 92.1885 47.0895 91.7986 47.0895C91.2233 47.0895 90.7098 46.9563 90.2581 46.69C89.8064 46.4237 89.4506 46.0391 89.1906 45.5362C88.9307 45.0334 88.8007 44.4304 88.8007 43.7273C88.8007 43.022 88.9317 42.419 89.1938 41.9183C89.4559 41.4155 89.8128 41.0309 90.2645 40.7646C90.7162 40.4982 91.2275 40.3651 91.7986 40.3651C92.1629 40.3651 92.5017 40.4162 92.8149 40.5185C93.1281 40.6207 93.4072 40.771 93.6523 40.9691C93.8973 41.1651 94.0986 41.4059 94.2563 41.6914C94.4161 41.9748 94.5205 42.2987 94.5695 42.663ZM95.6554 47V40.4545H99.9125V41.4485H96.8411V43.2255H99.6919V44.2195H96.8411V46.006H99.938V47H95.6554ZM106.501 40.4545V47H105.446L102.362 42.5415H102.308V47H101.122V40.4545H102.183L105.264 44.9162H105.322V40.4545H106.501ZM107.505 41.4485V40.4545H112.728V41.4485H110.705V47H109.528V41.4485H107.505ZM113.734 47V40.4545H117.992V41.4485H114.92V43.2255H117.771V44.2195H114.92V46.006H118.017V47H113.734ZM119.201 47V40.4545H121.656C122.159 40.4545 122.581 40.5419 122.921 40.7166C123.264 40.8913 123.523 41.1364 123.698 41.4517C123.875 41.7649 123.963 42.1303 123.963 42.5479C123.963 42.9677 123.874 43.332 123.695 43.641C123.518 43.9478 123.257 44.1854 122.912 44.3537C122.567 44.5199 122.143 44.603 121.64 44.603H119.892V43.6186H121.48C121.774 43.6186 122.015 43.5781 122.202 43.4972C122.39 43.4141 122.528 43.2937 122.618 43.136C122.709 42.9762 122.755 42.7802 122.755 42.5479C122.755 42.3157 122.709 42.1175 122.618 41.9535C122.526 41.7873 122.387 41.6616 122.199 41.5763C122.012 41.489 121.77 41.4453 121.474 41.4453H120.387V47H119.201ZM122.583 44.0341L124.203 47H122.88L121.288 44.0341H122.583Z" fill="#555555"/>
<path d="M3.861 5.454H19.71V8.316H3.861V5.454ZM1.107 14.094H23.733V16.956H1.107V14.094ZM10.584 16.119H14.175V21.357H10.584V16.119ZM17.55 5.454H21.087V7.452C21.087 9.612 21.087 12.123 20.304 15.417L16.767 15.066C17.55 11.853 17.55 9.558 17.55 7.452V5.454ZM3.375 20.466H21.114V29.403H17.523V23.301H3.375V20.466ZM43.0899 4.401H46.7079V18.36H43.0899V4.401ZM27.2139 15.039H29.4009C34.2609 15.039 37.4199 14.958 41.0379 14.337L41.4429 17.226C37.7169 17.82 34.3959 17.928 29.4009 17.928H27.2139V15.039ZM27.1869 5.535H38.6889V12.987H30.7509V16.929H27.2139V10.287H35.1519V8.37H27.1869V5.535ZM30.0759 19.386H33.6129V21.492H43.1439V19.386H46.7079V29.133H30.0759V19.386ZM33.6129 24.246V26.271H43.1439V24.246H33.6129ZM66.8478 4.401H70.4388V18.603H66.8478V4.401ZM69.4398 9.936H73.7598V12.852H69.4398V9.936ZM54.1848 19.683H70.4388V29.133H54.1848V19.683ZM66.9288 22.491H57.7218V26.298H66.9288V22.491ZM57.7218 5.751C61.5828 5.751 64.5258 8.289 64.5258 11.826C64.5258 15.336 61.5828 17.874 57.7218 17.874C53.8608 17.874 50.9178 15.336 50.9178 11.826C50.9178 8.289 53.8608 5.751 57.7218 5.751ZM57.7218 8.748C55.8318 8.748 54.4278 9.909 54.4278 11.826C54.4278 13.77 55.8318 14.877 57.7218 14.877C59.6118 14.877 61.0158 13.77 61.0158 11.826C61.0158 9.909 59.6118 8.748 57.7218 8.748ZM85.5297 10.098H89.4987V12.987H85.5297V10.098ZM93.4947 4.401H96.8967V23.112H93.4947V4.401ZM88.4997 4.806H91.8747V22.356H88.4997V4.806ZM80.0757 26.109H97.5447V28.971H80.0757V26.109ZM80.0757 20.925H83.6667V27.918H80.0757V20.925ZM79.9947 6.075H82.8027V9.288C82.8027 13.689 81.1827 18.036 77.2137 19.899L75.2697 17.172C78.6717 15.498 79.9947 12.258 79.9947 9.288V6.075ZM80.7237 6.075H83.4777V9.288C83.4777 12.177 84.6657 15.039 87.7977 16.551L85.8267 19.278C82.1277 17.55 80.7237 13.554 80.7237 9.288V6.075ZM117.847 4.374H121.411V29.457H117.847V4.374ZM113.554 13.176H118.252V16.092H113.554V13.176ZM101.566 20.898H103.564C107.695 20.898 110.773 20.844 114.31 20.277L114.634 23.139C111.016 23.706 107.776 23.814 103.564 23.814H101.566V20.898ZM101.566 6.48H113.149V9.396H105.13V21.816H101.566V6.48ZM104.32 13.446H112.285V16.254H104.32V13.446Z" fill="#555555"/>
</svg>
